<svg xmlns="http://www.w3.org/2000/svg" viewBox="0 0 256 256" xml:space="preserve"><path fill="#63BCE7" d="M148.725 216.871H65.158c-9.104 0-16.484-7.38-16.484-16.484V29.712c0-9.104 7.38-16.484 16.484-16.484h83.567c9.104 0 16.484 7.38 16.484 16.484v170.675c.001 9.104-7.38 16.484-16.484 16.484z"/><path fill="#6377E7" d="M63.341 200.387V29.712c0-9.104 7.38-16.484 16.484-16.484H65.158c-9.104 0-16.484 7.38-16.484 16.484v170.674c0 9.104 7.38 16.484 16.484 16.484h14.667c-9.104.001-16.484-7.379-16.484-16.483z"/><path fill="#CECECE" d="M48.674 200.391c0 9.102 7.378 16.48 16.48 16.48h83.576c9.102 0 16.48-7.378 16.48-16.48v-9.738H48.674v9.738z"/><path fill="#AFAFAF" d="M63.341 200.391v-9.738H48.674v9.738c0 9.102 7.378 16.48 16.48 16.48h14.667c-9.102 0-16.48-7.379-16.48-16.48z"/><path fill="#CECECE" d="M165.21 29.708c0-9.102-7.378-16.48-16.48-16.48H65.154c-9.102 0-16.48 7.378-16.48 16.48v9.738H165.21v-9.738z"/><path fill="#AFAFAF" d="M79.821 13.228H65.154c-9.102 0-16.48 7.378-16.48 16.48v9.738h14.667v-9.738c0-9.102 7.378-16.48 16.48-16.48z"/><path fill="#F8AF23" d="M86.09 23.394h41.2v5.886h-41.2z"/><circle fill="#F8AF23" cx="107.118" cy="204.217" r="5.003"/><path fill="#CECECE" d="M67.061 102.791H30.287a7.288 7.288 0 0 1-7.289-7.289V58.728a7.288 7.288 0 0 1 7.289-7.289h36.774a7.288 7.288 0 0 1 7.289 7.289v36.774a7.288 7.288 0 0 1-7.289 7.289z"/><path fill="#AFAFAF" d="M37.665 95.502V58.728a7.29 7.29 0 0 1 7.289-7.289H30.287a7.288 7.288 0 0 0-7.289 7.289v36.774a7.288 7.288 0 0 0 7.289 7.289h14.667a7.288 7.288 0 0 1-7.289-7.289z"/><path fill="#F8AF23" d="M67.061 178.659H30.287a7.288 7.288 0 0 1-7.289-7.289v-36.774a7.288 7.288 0 0 1 7.289-7.289h36.774a7.288 7.288 0 0 1 7.289 7.289v36.774a7.288 7.288 0 0 1-7.289 7.289z"/><path fill="#F87023" d="M37.665 171.37v-36.774a7.288 7.288 0 0 1 7.289-7.289H30.287a7.288 7.288 0 0 0-7.289 7.289v36.774a7.29 7.29 0 0 0 7.289 7.289h14.667a7.288 7.288 0 0 1-7.289-7.289z"/><path fill="#F46275" d="M133.047 140.725H96.273a7.288 7.288 0 0 1-7.289-7.289V96.662a7.288 7.288 0 0 1 7.289-7.289h36.774a7.288 7.288 0 0 1 7.289 7.289v36.774a7.288 7.288 0 0 1-7.289 7.289z"/><path fill="#F8AF23" d="M165.192 52.738v51.352l-10.108-11.858c-4.191-4.917-11.643-5.511-16.56-1.32-4.917 4.191-5.511 11.643-1.32 16.56l22.994 26.976s-6.863 28.962 11.227 45.51h51.142l-4.534-62.216c-.544-5.746-4.087-10.606-7.69-14.626l-45.151-50.378z"/><path fill="#F8D323" d="M218.033 117.742c-.544-5.746-4.087-10.606-7.69-14.626l-45.152-50.377v16.364l30.485 34.013c3.603 4.02 7.146 8.88 7.69 14.626l4.534 62.216h14.667l-4.534-62.216z"/><path fill="#707070" d="M153.5 179.958h79.502v36.913H153.5z"/><path fill="#9E9E9E" d="M218.335 179.958h14.667v36.913h-14.667z"/><path fill="#CECECE" d="M153.5 216.871h79.502v14.928H153.5z"/><path fill="#E2E2E2" d="M218.335 216.871h14.667v14.928h-14.667z"/><circle fill="#63BCE7" cx="172.341" cy="198.415" r="6.763"/><path fill="#F46275" d="m39.24 167.863 19.543-12.842c1.465-.963 1.465-3.111 0-4.074L39.24 138.104c-1.621-1.065-3.776.098-3.776 2.037v25.685c0 1.939 2.156 3.102 3.776 2.037z"/><g fill="#3F3679"><path d="M27.323 241.272H9.32a1.5 1.5 0 1 0 0 3h18.003a1.5 1.5 0 1 0 0-3zM246.68 241.272h-18.003a1.5 1.5 0 0 0 0 3h18.003a1.5 1.5 0 0 0 0-3zM218.479 241.272H37.521a1.5 1.5 0 1 0 0 3H218.48a1.5 1.5 0 0 0-.001-3zM9.32 233.3h237.36a1.5 1.5 0 0 0 0-3h-12.178v-50.342a1.5 1.5 0 0 0-1.5-1.5h-9.04l-4.436-60.857c-.608-6.428-4.63-11.652-8.065-15.485l-44.751-49.93V29.708c0-9.914-8.066-17.98-17.98-17.98H65.154c-9.914 0-17.98 8.066-17.98 17.98v20.231H30.287c-4.846 0-8.789 3.942-8.789 8.789v36.773c0 4.847 3.943 8.789 8.789 8.789h16.887v21.517H30.287c-4.846 0-8.789 3.942-8.789 8.789v36.773c0 4.847 3.943 8.789 8.789 8.789h16.887v20.231c0 9.914 8.066 17.98 17.98 17.98h83.571c1.101 0 2.198-.103 3.274-.301V230.3H9.32a1.5 1.5 0 1 0 0 3zm222.182-17.929H155v-33.913h76.503v33.913zm-63.65-36.913h-1.143v-1.357c.372.462.751.916 1.143 1.357zm41.375-74.341c3.129 3.491 6.787 8.21 7.311 13.734l4.417 60.606h-48.939c-16.685-15.815-10.423-43.386-10.356-43.665a1.503 1.503 0 0 0-.318-1.317L138.346 106.5c-3.665-4.301-3.149-10.781 1.15-14.446 4.301-3.666 10.782-3.148 14.446 1.15l10.107 11.858 19.193 22.517a1.498 1.498 0 1 0 2.284-1.945l-18.819-22.077.002-.022V56.68l42.518 47.437zm-70.372 7.604c-.008.062-.019.123-.019.186v21.529a5.796 5.796 0 0 1-5.789 5.789H96.273a5.796 5.796 0 0 1-5.789-5.789V96.662a5.796 5.796 0 0 1 5.789-5.789h36.774c.976 0 1.913.249 2.757.708-3.888 4.858-3.924 11.958.259 16.864l2.792 3.276zM50.174 29.708c0-8.261 6.72-14.98 14.98-14.98h83.572c8.263 0 14.984 6.722 14.984 14.984v8.234H50.174v-8.238zM24.498 95.502V58.729a5.796 5.796 0 0 1 5.789-5.789h36.774a5.796 5.796 0 0 1 5.789 5.789v36.773a5.796 5.796 0 0 1-5.789 5.789H30.287a5.796 5.796 0 0 1-5.789-5.789zm0 75.868v-36.773a5.796 5.796 0 0 1 5.789-5.789h36.774a5.796 5.796 0 0 1 5.789 5.789v36.773a5.796 5.796 0 0 1-5.789 5.789H30.287a5.795 5.795 0 0 1-5.789-5.789zm42.563 8.789c4.846 0 8.789-3.942 8.789-8.789v-36.773c0-4.847-3.943-8.789-8.789-8.789H50.174v-21.517h16.887c4.846 0 8.789-3.942 8.789-8.789V58.729c0-4.847-3.943-8.789-8.789-8.789H50.174v-8.993H163.71v11.671c-.003.041-.019.079-.019.121v47.279l-7.466-8.759c-4.613-5.414-12.669-6.172-18.222-1.836a8.715 8.715 0 0 0-4.957-1.549H96.273c-4.846 0-8.789 3.942-8.789 8.789v36.774c0 4.847 3.942 8.789 8.789 8.789h36.774c4.847 0 8.789-3.942 8.789-8.789v-18.218l16.74 19.64c-.426 2.12-1.502 8.434-1.046 16.227.487 8.316 2.609 15.657 6.207 21.716a1.518 1.518 0 0 0-.027.271v5.386H153.5a1.5 1.5 0 0 0-1.5 1.5v9.194H50.174v-8.993h16.887zm-1.903 35.212c-8.262 0-14.984-6.722-14.984-14.984v-8.234H152v22.853c-1.071.238-2.17.366-3.274.366H65.158zm89.842 3h76.502V230.3H155v-11.929z"/><path d="M127.29 21.895h-41.2a1.5 1.5 0 0 0-1.5 1.5v5.885a1.5 1.5 0 0 0 1.5 1.5h41.2a1.5 1.5 0 0 0 1.5-1.5v-5.885a1.5 1.5 0 0 0-1.5-1.5zm-1.5 5.884h-38.2v-2.885h38.2v2.885zM107.118 197.714c-3.586 0-6.503 2.917-6.503 6.503s2.917 6.503 6.503 6.503c3.585 0 6.502-2.917 6.502-6.503s-2.916-6.503-6.502-6.503zm0 10.006c-1.932 0-3.503-1.571-3.503-3.503s1.571-3.503 3.503-3.503c1.931 0 3.502 1.571 3.502 3.503s-1.571 3.503-3.502 3.503zM172.341 190.152c-4.556 0-8.263 3.707-8.263 8.263s3.707 8.263 8.263 8.263 8.263-3.707 8.263-8.263-3.708-8.263-8.263-8.263zm0 13.526c-2.902 0-5.263-2.36-5.263-5.263s2.36-5.263 5.263-5.263 5.263 2.36 5.263 5.263-2.361 5.263-5.263 5.263zM57.128 60.089H40.219c-4.727 0-8.572 3.846-8.572 8.572V85.57c0 4.727 3.845 8.571 8.572 8.571h16.909c4.727 0 8.572-3.845 8.572-8.571V68.661c0-4.726-3.845-8.572-8.572-8.572zM62.7 85.57c0 3.072-2.5 5.571-5.572 5.571H40.219a5.578 5.578 0 0 1-5.572-5.571V68.661c0-3.072 2.5-5.572 5.572-5.572h16.909c3.072 0 5.572 2.5 5.572 5.572V85.57z"/><path d="M48.674 67.643c-5.223 0-9.473 4.249-9.473 9.473s4.25 9.473 9.473 9.473c5.224 0 9.473-4.249 9.473-9.473s-4.25-9.473-9.473-9.473zm0 15.945c-3.569 0-6.473-2.903-6.473-6.473s2.904-6.473 6.473-6.473 6.473 2.903 6.473 6.473-2.904 6.473-6.473 6.473zM122.732 96.872h-5.327c-4.465 0-8.098 3.633-8.098 8.098v7.735h-2.718a1.5 1.5 0 1 0 0 3h2.718v18.619a1.5 1.5 0 1 0 3 0v-18.619h5.639a1.5 1.5 0 1 0 0-3h-5.639v-7.735a5.104 5.104 0 0 1 5.098-5.098h5.327a1.5 1.5 0 1 0 0-3zM59.607 149.692 40.064 136.85a3.938 3.938 0 0 0-6.1 3.291v25.686a3.94 3.94 0 0 0 6.1 3.292l19.543-12.843c1.112-.73 1.775-1.961 1.775-3.291s-.663-2.562-1.775-3.293zm-1.647 4.075L38.418 166.61a.922.922 0 0 1-.961.041.914.914 0 0 1-.492-.824v-25.686c0-.505.344-.745.493-.825a.968.968 0 0 1 .453-.116c.152 0 .327.039.507.158L57.96 152.2c.381.25.423.631.423.783s-.042.534-.423.784z"/></g></svg>