<svg xmlns="http://www.w3.org/2000/svg" viewBox="0 0 800 800" xml:space="preserve"><path d="M731.68 562.199V143.814c9.029-2.79 15.65-11.115 15.65-21.047V74.101c0-12.2-9.924-22.127-22.127-22.127H74.797c-12.203 0-22.127 9.926-22.127 22.127v48.665c0 9.934 6.622 18.261 15.654 21.049v418.383c0 22.283 18.127 40.41 40.408 40.41h282.251a10.172 10.172 0 0 0-.242 2.204V671.7c-16.892 4.174-29.469 19.415-29.469 37.578 0 21.364 17.38 38.746 38.746 38.746 21.366 0 38.746-17.382 38.746-38.746 0-18.164-12.577-33.405-29.469-37.578v-66.888c0-.789-.091-1.519-.242-2.204h282.216c22.284.001 40.411-18.126 40.411-40.409zM420.211 709.28c0 11.134-9.059 20.193-20.193 20.193s-20.193-9.059-20.193-20.193c0-11.136 9.059-20.195 20.193-20.195s20.193 9.059 20.193 20.195zM71.223 74.101c0-1.936 1.635-3.574 3.574-3.574h650.406c1.939 0 3.574 1.637 3.574 3.574v48.665c0 1.936-1.635 3.574-3.574 3.574H74.797c-1.939 0-3.574-1.637-3.574-3.574V74.101zm15.654 488.098V144.894h626.25v417.305c0 12.053-9.807 21.857-21.86 21.857H108.732c-12.053 0-21.855-9.804-21.855-21.857z"/><path d="M285.833 436.177h-60.438c-10.341 0-18.752 8.411-18.752 18.752v83.985c0 10.339 8.411 18.75 18.752 18.75h60.438c10.341 0 18.752-8.411 18.752-18.75V454.93c0-10.341-8.411-18.753-18.752-18.753zm.199 102.737c0 .088-.109.197-.199.197l-60.637-.197.199-84.184 60.637.199v83.985zM576.516 243.497H516.25c-10.391 0-18.843 8.452-18.843 18.841v276.488c0 10.388 8.452 18.838 18.843 18.838h60.266c10.386 0 18.838-8.45 18.838-18.838V262.338c.001-10.388-8.451-18.841-18.838-18.841zm.286 295.329c0 .136-.149.285-.285.285l-60.556-.285.29-276.776 60.551.288v276.488zM424.17 393.867h-49.834c-12.379 0-22.453 10.072-22.453 22.453v118.891c0 12.382 10.074 22.453 22.453 22.453h53.036c12.379 0 22.453-10.071 22.453-22.453v-46.213c0-11.938-18.553-11.958-18.553 0v46.213c0 2.113-1.785 3.9-3.9 3.9h-53.036c-2.115 0-3.9-1.787-3.9-3.9V416.32c0-2.113 1.785-3.9 3.9-3.9h49.834a7.109 7.109 0 0 1 7.102 7.102v13.192c0 4.852 4.267 9.501 9.277 9.276 5.027-.225 9.277-4.076 9.277-9.276v-13.968c0-.236-.055-.466-.075-.701-.773-13.457-11.934-24.178-25.581-24.178z"/><path d="M440.548 450.855a8.677 8.677 0 1 0 0 17.354 8.677 8.677 0 0 0 0-17.354zM239.915 212.965l100.097.322c11.94.038 11.956-18.514 0-18.553l-100.097-.322c-11.94-.038-11.956 18.514 0 18.553zM219.587 209.31a8.677 8.677 0 0 0-.291-12.268 8.678 8.678 0 1 0 .291 12.268zM441.039 245.232l-201.124-.322c-11.939-.019-11.957 18.534 0 18.553l201.124.322c11.939.02 11.957-18.533 0-18.553zM219.587 259.809a8.677 8.677 0 0 0-.291-12.268 8.678 8.678 0 1 0 .291 12.268zM441.039 295.546l-201.124-.322c-11.939-.019-11.957 18.534 0 18.553l201.124.322c11.939.019 11.957-18.534 0-18.553zM219.587 310.123a8.677 8.677 0 0 0-.291-12.268 8.678 8.678 0 1 0 .291 12.268z"/><path fill="#58C7DE" d="M71.223 74.101c0-1.936 1.635-3.574 3.574-3.574h650.406c1.939 0 3.574 1.637 3.574 3.574v48.665c0 1.936-1.635 3.574-3.574 3.574H74.797c-1.939 0-3.574-1.637-3.574-3.574V74.101z"/><path fill="#F16235" d="M420.211 709.28c0 11.134-9.059 20.193-20.193 20.193s-20.193-9.059-20.193-20.193c0-11.136 9.059-20.195 20.193-20.195s20.193 9.059 20.193 20.195zM286.032 538.914c0 .088-.109.197-.199.197l-60.637-.197.199-84.184 60.637.199v83.985z"/><path fill="#58C7DE" d="M576.802 538.826c0 .136-.149.285-.285.285l-60.556-.285.29-276.776 60.551.288v276.488z"/></svg>