<svg xmlns="http://www.w3.org/2000/svg" viewBox="0 0 64 64"><defs><style>.cls-4{fill:#dfe1ea}.cls-9{fill:#fff}</style></defs><g id="_6-Programming" data-name="6-Programming"><path style="fill:#979faf" d="M19 59h26v3H19z"/><path style="fill:#adb2c7" d="m40 50 5 9H19l5-9h16z"/><path d="M63 4v38H1V4a2.006 2.006 0 0 1 2-2h58a2.006 2.006 0 0 1 2 2z" style="fill:#8dd5f6"/><path class="cls-4" d="M63 42v6a2.006 2.006 0 0 1-2 2H3a2.006 2.006 0 0 1-2-2v-6z"/><path d="M61 2H3a2.006 2.006 0 0 0-2 2v14.844A26.743 26.743 0 0 0 9.2 20c7.6 0 7.6-2 15.2-2s7.6 2 15.2 2 7.6-2 15.2-2a26.787 26.787 0 0 1 8.2 1.157V4a2.006 2.006 0 0 0-2-2z" style="fill:#aedff7"/><path d="M61 2H3a2.006 2.006 0 0 0-2 2v7.844A26.743 26.743 0 0 0 9.2 13c7.6 0 7.6-2 15.2-2s7.6 2 15.2 2 7.6-2 15.2-2a26.787 26.787 0 0 1 8.2 1.157V4a2.006 2.006 0 0 0-2-2z" style="fill:#f6fafd"/><path d="m24 50-1.832 3.3a25.289 25.289 0 0 0 6.432.7c6.6 0 7.475-1.507 12.57-1.9L40 50z" style="fill:#7e8596"/><rect x="10" y="9" width="20" height="22" rx=".99" ry=".99" style="fill:#0096cf"/><path class="cls-9" d="M6 14h20v14H6z"/><path style="fill:#ffa426" d="M6 6h20v8H6z"/><path class="cls-4" d="M9 17h14v8H9z"/><path class="cls-9" d="M6 32h20v6H6z"/><path class="cls-4" d="M6 32h7v6H6z"/><path class="cls-9" d="M9 9h2v2H9zM13 9h2v2h-2z"/><path d="M61 1H3a3 3 0 0 0-3 3v44a3 3 0 0 0 3 3h19.3l-4.175 7.514A1 1 0 0 0 18 59v2h-2v2h32v-2h-2v-2a1 1 0 0 0-.126-.486L41.7 51H61a3 3 0 0 0 3-3V4a3 3 0 0 0-3-3zm1 3v37H33V3h28a1 1 0 0 1 1 1zM3 3h28v38H2V4a1 1 0 0 1 1-1zm17 58v-1h24v1zm23.3-3H20.7l3.888-7h14.824zM61 49H3a1 1 0 0 1-1-1v-5h60v5a1 1 0 0 1-1 1z"/><path d="M6 29h20a1 1 0 0 0 1-1V6a1 1 0 0 0-1-1H6a1 1 0 0 0-1 1v22a1 1 0 0 0 1 1zm1-2V15h18v12zM25 7v6H7V7zM6 39h20a1 1 0 0 0 1-1v-6a1 1 0 0 0-1-1H6a1 1 0 0 0-1 1v6a1 1 0 0 0 1 1zm1-6h18v4H7z"/><path d="m13.293 17.293-3 3a1 1 0 0 0 0 1.414l3 3 1.414-1.414L12.414 21l2.293-2.293zM18.707 17.293l-1.414 1.414L19.586 21l-2.293 2.293 1.414 1.414 3-3a1 1 0 0 0 0-1.414zM38 26a.81.81 0 0 1 .71.291c.611.742.472 2.688.309 3.514A1 1 0 0 0 40 31h2v-2h-.865a5.871 5.871 0 0 0-.877-3.977A2.715 2.715 0 0 0 39 24.155v-.31a2.715 2.715 0 0 0 1.258-.868A5.871 5.871 0 0 0 41.135 19H42v-2h-2a1 1 0 0 0-.981 1.2c.163.826.3 2.772-.309 3.514A.81.81 0 0 1 38 22a1 1 0 0 0-1 1v2a1 1 0 0 0 1 1zM56.772 30.634a1 1 0 0 0 .209-.829c-.163-.826-.3-2.772.309-3.514A.81.81 0 0 1 58 26a1 1 0 0 0 1-1v-2a1 1 0 0 0-1-1 .81.81 0 0 1-.71-.291c-.611-.742-.472-2.688-.309-3.514A1 1 0 0 0 56 17h-2v2h.865a5.871 5.871 0 0 0 .877 3.977 2.715 2.715 0 0 0 1.258.868v.31a2.715 2.715 0 0 0-1.258.868A5.871 5.871 0 0 0 54.865 29H54v2h2a1 1 0 0 0 .772-.366zM47 23h2v2h-2z"/><path class="cls-9" d="M51 23h2v2h-2zM43 23h2v2h-2z"/></g></svg>