<svg id="_1-App" data-name="1-App" xmlns="http://www.w3.org/2000/svg" viewBox="0 0 64 64"><defs><style>.cls-4{fill:#dfe1ea}.cls-8{fill:#0096cf}.cls-9{fill:#fff}.cls-11{fill:#e9edf5}</style></defs><path style="fill:#979faf" d="M19 59h26v3H19z"/><path style="fill:#adb2c7" d="m40 50 5 9H19l5-9h16z"/><path d="M63 4v38H1V4a2.006 2.006 0 0 1 2-2h58a2.006 2.006 0 0 1 2 2z" style="fill:#8dd5f6"/><path class="cls-4" d="M63 42v6a2.006 2.006 0 0 1-2 2H3a2.006 2.006 0 0 1-2-2v-6z"/><path d="M61 2H3a2.006 2.006 0 0 0-2 2v14.844A26.743 26.743 0 0 0 9.2 20c7.6 0 7.6-2 15.2-2s7.6 2 15.2 2 7.6-2 15.2-2a26.787 26.787 0 0 1 8.2 1.157V4a2.006 2.006 0 0 0-2-2z" style="fill:#aedff7"/><path d="M61 2H3a2.006 2.006 0 0 0-2 2v7.844A26.743 26.743 0 0 0 9.2 13c7.6 0 7.6-2 15.2-2s7.6 2 15.2 2 7.6-2 15.2-2a26.787 26.787 0 0 1 8.2 1.157V4a2.006 2.006 0 0 0-2-2z" style="fill:#f6fafd"/><path d="m24 50-1.832 3.3a25.289 25.289 0 0 0 6.432.7c6.6 0 7.475-1.507 12.57-1.9L40 50z" style="fill:#7e8596"/><rect class="cls-8" x="42" y="20" width="20" height="22" rx=".99" ry=".99"/><rect class="cls-8" x="7" y="22" width="15" height="15" rx=".99" ry=".99"/><rect class="cls-8" x="19" y="8" width="17" height="15" rx=".99" ry=".99"/><path class="cls-9" d="M39 24h20v14H39z"/><path style="fill:#73c6b2" d="M39 16h20v8H39z"/><path class="cls-11" d="M32.5 7 19 20V6h14v1h-.5z"/><path class="cls-9" d="M33 6v14H18.481l14-14H33z"/><path class="cls-11" d="M19 20v14H4.481l14-14H19z"/><path class="cls-9" d="M19 20v1h-.5L5 34V20h14z"/><path d="M61 1H3a3 3 0 0 0-3 3v44a3 3 0 0 0 3 3h19.3l-4.175 7.514A1 1 0 0 0 18 59v2h-2v2h32v-2h-2v-2a1 1 0 0 0-.126-.486L41.7 51H61a3 3 0 0 0 3-3V4a3 3 0 0 0-3-3zM3 3h58a1 1 0 0 1 1 1v37H2V4a1 1 0 0 1 1-1zm17 58v-1h24v1zm23.3-3H20.7l3.888-7h14.824zM61 49H3a1 1 0 0 1-1-1v-5h60v5a1 1 0 0 1-1 1z"/><path d="M5 35h14a1 1 0 0 0 1-1V21h13a1 1 0 0 0 1-1V6a1 1 0 0 0-1-1H19a1 1 0 0 0-1 1v13H5a1 1 0 0 0-1 1v14a1 1 0 0 0 1 1zm2.414-2L18 22.414V33zm14-14L32 8.414V19zm9.172-12L20 17.586V7zm-14 14L6 31.586V21zM39 39h20a1 1 0 0 0 1-1V16a1 1 0 0 0-1-1H39a1 1 0 0 0-1 1v22a1 1 0 0 0 1 1zm1-2V25h18v12zm18-20v6H40v-6zM30.707 31.293l-1.414 1.414L30.586 34H24v2h6.586l-1.293 1.293 1.414 1.414 3-3a1 1 0 0 0 0-1.414z"/><path d="m30.707 22.293-1.414 1.414L30.586 25H24v2h6.586l-1.293 1.293 1.414 1.414 3-3a1 1 0 0 0 0-1.414z"/><path class="cls-9" d="M42 19h2v2h-2zM46 19h2v2h-2z"/><path class="cls-4" d="M42 27h14v8H42z"/></svg>