<svg xmlns="http://www.w3.org/2000/svg" width="512" height="512" xml:space="preserve"><g><path fill="none" stroke="#FFD161" stroke-width="10" stroke-linecap="round" stroke-linejoin="round" stroke-miterlimit="10" d="M91 221.27s-30.58-71.475 13.461-115.516 106.841-20.478 106.841-20.478M421 221.27s30.58-71.475-13.461-115.516-106.841-20.479-106.841-20.479M421 292.501s30.58 71.475-13.461 115.516-106.841 20.478-106.841 20.478M91 292.501s-30.58 71.475 13.461 115.516 106.841 20.478 106.841 20.478"/><path fill="#E3E3E3" d="M256 69.885c-103.277 0-187 83.723-187 187s83.723 187 187 187 187-83.723 187-187-83.723-187-187-187zm0 289.391c-56.549 0-102.391-45.842-102.391-102.391S199.451 154.493 256 154.493s102.391 45.842 102.391 102.391S312.549 359.276 256 359.276z"/><path fill="#A6A6A6" d="M256 142.397c-63.23 0-114.488 51.258-114.488 114.488S192.77 371.373 256 371.373s114.489-51.258 114.489-114.488S319.23 142.397 256 142.397zm0 204.442c-49.68 0-89.954-40.274-89.954-89.954S206.32 166.931 256 166.931c49.68 0 89.954 40.274 89.954 89.954S305.68 346.839 256 346.839z"/><path fill="#FF6650" d="M295.838 186.219c-1.521 0-3.039-.347-4.436-1.037-11.063-5.475-22.975-8.251-35.402-8.251s-24.339 2.775-35.403 8.25a10.005 10.005 0 0 1-8.503.172 10 10 0 0 1-5.561-6.436l-26.419-94.24a10 10 0 0 1 6.085-12.05C208.506 64.172 231.99 59.885 256 59.885c24.009 0 47.493 4.287 69.801 12.741a10 10 0 0 1 6.085 12.05l-26.419 94.242a10.002 10.002 0 0 1-9.629 7.301zM256 453.885c-24.012 0-47.496-4.287-69.801-12.741a10 10 0 0 1-6.085-12.05l26.419-94.242a10.002 10.002 0 0 1 14.065-6.264c11.063 5.475 22.975 8.251 35.402 8.251s24.339-2.776 35.404-8.251a10.005 10.005 0 0 1 8.503-.172 10 10 0 0 1 5.561 6.436l26.418 94.241a10 10 0 0 1-6.085 12.05c-22.307 8.455-45.791 12.742-69.801 12.742zM81.09 333.144a10.003 10.003 0 0 1-9.348-6.458C63.287 304.379 59 280.895 59 256.885c0-24.012 4.287-47.496 12.741-69.801a10.003 10.003 0 0 1 9.348-6.458c.895 0 1.802.121 2.702.373l94.242 26.419a10.002 10.002 0 0 1 6.264 14.065c-5.475 11.063-8.251 22.975-8.251 35.402s2.776 24.339 8.251 35.404a9.999 9.999 0 0 1-6.264 14.064l-94.241 26.418c-.9.252-1.808.373-2.702.373zM430.911 333.144c-.895 0-1.802-.121-2.702-.373l-94.242-26.419a10.002 10.002 0 0 1-6.264-14.065c5.475-11.063 8.251-22.975 8.251-35.402s-2.776-24.339-8.251-35.404a9.999 9.999 0 0 1 6.264-14.064l94.241-26.418c.9-.252 1.808-.373 2.702-.373 4.061 0 7.844 2.489 9.348 6.458C448.713 209.391 453 232.875 453 256.885c0 24.012-4.287 47.496-12.741 69.801a10.004 10.004 0 0 1-9.348 6.458z"/><path fill="#CF5341" d="M212.094 185.353a10 10 0 0 0 8.503-.172c11.064-5.475 22.977-8.25 35.403-8.25 12.428 0 24.339 2.776 35.402 8.251a10.009 10.009 0 0 0 8.504.172 10 10 0 0 0 5.561-6.436l6.194-22.095c-16.478-9.186-35.456-14.427-55.661-14.427s-39.182 5.241-55.66 14.427l6.194 22.094a9.998 9.998 0 0 0 5.56 6.436zM299.907 328.416a10 10 0 0 0-8.503.172c-11.065 5.475-22.977 8.251-35.404 8.251s-24.339-2.776-35.402-8.251a10.009 10.009 0 0 0-8.504-.172 10 10 0 0 0-5.561 6.436l-6.194 22.095c16.478 9.186 35.456 14.427 55.661 14.427s39.183-5.241 55.661-14.427l-6.194-22.094a9.998 9.998 0 0 0-5.56-6.437zM184.469 300.792a9.999 9.999 0 0 0-.172-8.503c-5.475-11.065-8.251-22.977-8.251-35.404s2.776-24.339 8.251-35.402a10 10 0 0 0-6.264-14.065l-22.095-6.194c-9.186 16.478-14.427 35.456-14.427 55.661s5.241 39.183 14.427 55.661l22.094-6.194a9.998 9.998 0 0 0 6.437-5.56zM356.061 201.224l-22.094 6.194a10.002 10.002 0 0 0-6.264 14.064c5.475 11.065 8.251 22.977 8.251 35.404s-2.776 24.339-8.251 35.402a10 10 0 0 0 6.264 14.065l22.095 6.194c9.186-16.478 14.427-35.456 14.427-55.661-.001-20.206-5.242-39.184-14.428-55.662z"/></g></svg>