<svg xmlns="http://www.w3.org/2000/svg" viewBox="0 0 256 256" xml:space="preserve"><path fill="#CECECE" d="M32.035 214.868c-7.535 0-13.665-6.13-13.665-13.665V77.426c0-7.535 6.13-13.665 13.665-13.665h191.931c7.535 0 13.665 6.13 13.665 13.665v123.776c0 7.535-6.13 13.665-13.665 13.665H32.035z"/><path fill="#E2E2E2" d="M223.965 63.762h-14.667c7.534 0 13.665 6.13 13.665 13.665v123.776c0 7.534-6.13 13.665-13.665 13.665h14.667c7.535 0 13.665-6.13 13.665-13.665V77.426c0-7.534-6.13-13.664-13.665-13.664z"/><path fill="#AFAFAF" d="M32.035 63.762h14.667c-7.534 0-13.665 6.13-13.665 13.665v123.776c0 7.534 6.13 13.665 13.665 13.665H32.035c-7.535 0-13.665-6.13-13.665-13.665V77.426c0-7.534 6.13-13.664 13.665-13.664z"/><path fill="#63BCE7" d="M229.221 77.45v123.728a5.28 5.28 0 0 1-5.28 5.28H32.059a5.28 5.28 0 0 1-5.28-5.28V77.45a5.28 5.28 0 0 1 5.28-5.28h191.882a5.28 5.28 0 0 1 5.28 5.28z"/><path fill="#63E2E7" d="M223.941 72.17h-14.667a5.28 5.28 0 0 1 5.28 5.28v123.728a5.28 5.28 0 0 1-5.28 5.28h14.667a5.28 5.28 0 0 0 5.28-5.28V77.45a5.28 5.28 0 0 0-5.28-5.28z"/><path fill="#6377E7" d="M32.059 72.17h14.667a5.28 5.28 0 0 0-5.28 5.28v123.728a5.28 5.28 0 0 0 5.28 5.28H32.059a5.28 5.28 0 0 1-5.28-5.28V77.45a5.28 5.28 0 0 1 5.28-5.28z"/><path fill="#CECECE" d="M128 214.868H8.667l3.053 7.024a17.333 17.333 0 0 0 15.896 10.423h200.769a17.333 17.333 0 0 0 15.896-10.423l3.053-7.024H128z"/><path fill="#E2E2E2" d="m232.667 214.868-3.053 7.024a17.333 17.333 0 0 1-15.896 10.423h14.667a17.333 17.333 0 0 0 15.896-10.423l3.053-7.024h-14.667z"/><path fill="#AFAFAF" d="m23.333 214.868 3.053 7.024a17.333 17.333 0 0 0 15.896 10.423H27.615a17.333 17.333 0 0 1-15.896-10.423l-3.053-7.024h14.667z"/><path fill="#707070" d="m82.442 214.868 4.22 5.388a8.7 8.7 0 0 0 6.85 3.336h68.975a8.7 8.7 0 0 0 6.85-3.336l4.221-5.388H82.442z"/><path fill="#F46275" d="M67.443 112.695h121.114v53.239H67.443z"/><path fill="#F8AF23" d="m126.387 151.623 9.702-9.702a2.064 2.064 0 0 0 0-2.919l-9.702-9.702c-1.3-1.3-3.523-.379-3.523 1.459v19.404c0 1.839 2.223 2.76 3.523 1.46z"/><circle fill="#CECECE" cx="128" cy="67.144" r="54.431"/><path fill="#AFAFAF" d="M88.236 67.144c0-27.573 20.507-50.342 47.098-53.925a54.752 54.752 0 0 0-7.333-.506c-30.062 0-54.431 24.37-54.431 54.431s24.37 54.431 54.431 54.431a54.74 54.74 0 0 0 7.333-.506c-26.592-3.583-47.098-26.353-47.098-53.925z"/><circle fill="#F8AF23" cx="154.866" cy="65.808" r="10.885"/><path fill="#F8AF23" d="m144.688 91.392-25.459-13.36V53.573l25.459-13.36z"/><path fill="#F46275" d="M144.688 40.213h10.179v51.179h-10.179z"/><path fill="#63BCE7" d="M97.817 53.573h21.412v24.469H97.817z"/><path fill="#F46275" d="M85.011 59.683h12.806v12.24H85.011z"/><path fill="#63BCE7" d="M103.8 78.043h9.445v19.142H103.8z"/><g fill="#3F3679"><path d="m245.656 222.489 3.053-7.024a1.501 1.501 0 0 0-1.376-2.098h-14.351c3.722-2.766 6.148-7.182 6.148-12.164V77.427c0-8.362-6.803-15.165-15.164-15.165h-40.26C181.222 33.7 157.195 11.212 128 11.212S74.778 33.7 72.294 62.262h-40.26c-8.361 0-15.164 6.803-15.164 15.165v123.776c0 4.982 2.426 9.398 6.148 12.164H8.667a1.501 1.501 0 0 0-1.376 2.098l3.053 7.024a18.805 18.805 0 0 0 7.08 8.325H9.32a1.5 1.5 0 0 0 0 3h237.36a1.5 1.5 0 0 0 0-3h-8.104a18.798 18.798 0 0 0 7.08-8.325zM93.598 111.195H67.443a1.5 1.5 0 0 0-1.5 1.5v53.238a1.5 1.5 0 0 0 1.5 1.5h121.113a1.5 1.5 0 0 0 1.5-1.5v-53.238a1.5 1.5 0 0 0-1.5-1.5h-26.154c11.473-8.98 19.361-22.328 21.136-37.524h40.403a3.783 3.783 0 0 1 3.779 3.779v123.729a3.784 3.784 0 0 1-3.779 3.78H32.059a3.784 3.784 0 0 1-3.779-3.78V77.45a3.783 3.783 0 0 1 3.779-3.779h40.403c1.775 15.197 9.663 28.544 21.136 37.524zm64.584 3h28.875v50.238H68.943v-50.238H97.74c.023 0 .044-.006.067-.007 8.717 5.614 19.077 8.887 30.193 8.887a55.577 55.577 0 0 0 30.182-8.88zM128 14.212c29.187 0 52.932 23.745 52.932 52.932S157.187 120.075 128 120.075 75.068 96.33 75.068 67.144 98.813 14.212 128 14.212zM19.87 201.203V77.427c0-6.708 5.457-12.165 12.164-12.165h40.082c-.021.626-.048 1.251-.048 1.882 0 1.186.05 2.36.123 3.527H32.059a6.787 6.787 0 0 0-6.779 6.779v123.729a6.787 6.787 0 0 0 6.779 6.78h191.883a6.787 6.787 0 0 0 6.779-6.78V77.45a6.787 6.787 0 0 0-6.779-6.779h-40.133c.073-1.167.123-2.342.123-3.527 0-.631-.027-1.256-.048-1.882h40.082c6.707 0 12.164 5.457 12.164 12.165v123.776c0 6.707-5.457 12.164-12.164 12.164H32.034c-6.707 0-12.164-5.457-12.164-12.164zm150.608 15.164-2.32 2.964a7.158 7.158 0 0 1-5.67 2.76H93.513a7.16 7.16 0 0 1-5.67-2.76l-2.32-2.964h84.955zm57.907 14.447H27.615c-4.787 0-9.22-2.157-12.18-5.724h29.141a1.5 1.5 0 0 0 0-3H13.478c-.132-.263-.264-.525-.382-.797l-2.142-4.927h70.758l3.769 4.813a10.139 10.139 0 0 0 8.031 3.91h68.975c3.157 0 6.085-1.425 8.031-3.91l3.769-4.813h70.758l-2.142 4.927c-.118.271-.25.534-.382.797h-31.099a1.5 1.5 0 0 0 0 3h29.141a15.813 15.813 0 0 1-12.178 5.724z"/><path d="M65.22 222.091H54.845a1.5 1.5 0 0 0 0 3H65.22a1.5 1.5 0 0 0 0-3zM201.155 222.091H190.78a1.5 1.5 0 0 0 0 3h10.375a1.5 1.5 0 0 0 0-3zM27.323 241.788H9.32a1.5 1.5 0 0 0 0 3h18.003a1.5 1.5 0 0 0 0-3zM246.68 241.788h-18.003a1.5 1.5 0 0 0 0 3h18.003a1.5 1.5 0 0 0 0-3zM218.479 241.788H37.521a1.5 1.5 0 0 0 0 3H218.48a1.5 1.5 0 0 0-.001-3zM123.563 127.467a3.553 3.553 0 0 0-2.2 3.292v19.405c0 1.446.863 2.738 2.2 3.292a3.553 3.553 0 0 0 3.884-.773l9.701-9.701a3.538 3.538 0 0 0 1.045-2.521 3.54 3.54 0 0 0-1.044-2.521l-9.702-9.702a3.554 3.554 0 0 0-3.884-.771zm11.63 12.995a.56.56 0 0 1-.165.398l-9.702 9.702a.539.539 0 0 1-.615.122.537.537 0 0 1-.348-.521v-19.405c0-.327.218-.467.348-.521a.626.626 0 0 1 .23-.047c.118 0 .255.039.385.169l9.703 9.703a.561.561 0 0 1 .164.4zM96.317 78.043a1.5 1.5 0 0 0 1.5 1.5h4.483v17.642a1.5 1.5 0 0 0 1.5 1.5h9.444a1.5 1.5 0 0 0 1.5-1.5V79.543h4.134l25.111 13.178v-.008c.209.111.444.18.697.18h10.179a1.5 1.5 0 0 0 1.5-1.5v-13.3c6.123-.744 10.885-5.964 10.885-12.285s-4.762-11.541-10.885-12.285v-13.31a1.5 1.5 0 0 0-1.5-1.5h-10.179a1.48 1.48 0 0 0-.697.18v-.008l-25.131 13.188H97.817a1.5 1.5 0 0 0-1.5 1.5v4.609H85.011a1.5 1.5 0 0 0-1.5 1.5v12.24a1.5 1.5 0 0 0 1.5 1.5h11.307v4.621zm67.934-12.235c0 4.663-3.422 8.532-7.885 9.253V56.554c4.463.722 7.885 4.591 7.885 9.254zm-18.063-24.095h7.179v48.18h-7.179v-48.18zm-34.443 53.972h-6.444V79.543h6.444v16.142zm31.443-6.774-22.459-11.786V54.48l22.459-11.786v46.217zM99.317 55.073h18.411v21.47h-18.41v-21.47zm-12.806 15.35v-9.24h9.807v9.24h-9.807z"/></g></svg>