<svg xmlns="http://www.w3.org/2000/svg" viewBox="0 0 800 800" xml:space="preserve"><path d="M699.636 103.673H465.2V64.306c0-8.14-6.622-14.762-14.762-14.762H349.013c-8.144 0-14.766 6.622-14.766 14.762v39.366H99.811c-26 0-47.148 21.149-47.148 47.148v353.033c0 26 21.148 47.148 47.148 47.148h63.736c-.029.441-.132.861-.132 1.309v28.649c0 10.948 8.91 19.857 19.857 19.857h153.349l-64.26 130.236c-5.266 10.671 10.73 20.083 16.02 9.364l67.089-135.97a9.804 9.804 0 0 0 .998-3.63h86.51a9.754 9.754 0 0 0 .999 3.63l67.089 135.97c5.283 10.707 21.29 1.317 16.02-9.364l-64.259-130.236h153.348c10.948 0 19.857-8.91 19.857-19.857V552.31c0-.448-.103-.868-.133-1.309h63.736c26 0 47.148-21.148 47.148-47.148V150.821c.001-26-21.147-47.148-47.147-47.148zM352.8 68.098h93.848v35.575H352.8V68.098zm264.679 484.213v28.649c0 .693-.612 1.305-1.305 1.305H183.272c-.693 0-1.305-.612-1.305-1.305v-28.649c0-.698.611-1.309 1.305-1.309h432.902c.694 0 1.305.611 1.305 1.309zm110.752-48.457c0 15.767-12.828 28.595-28.595 28.595H99.811c-15.767 0-28.595-12.828-28.595-28.595V150.821c0-15.767 12.828-28.595 28.595-28.595h599.825c15.767 0 28.595 12.828 28.595 28.595v353.033z"/><path d="M391.283 355.121H330.84c-10.341 0-18.752 8.411-18.752 18.752v83.982c0 10.341 8.411 18.752 18.752 18.752h60.442c10.341 0 18.752-8.411 18.752-18.752v-83.982c.001-10.34-8.41-18.752-18.751-18.752zm.199 102.735c0 .086-.113.199-.199.199l-60.641-.199.199-84.182 60.642.199v83.983zM681.962 273.762h-60.266c-10.386 0-18.838 8.452-18.838 18.838v165.17c0 10.386 8.452 18.838 18.838 18.838h60.266c10.386 0 18.838-8.452 18.838-18.838V292.6c0-10.386-8.452-18.838-18.838-18.838zm.285 184.008c0 .136-.15.285-.285.285l-60.551-.285.285-165.455 60.551.285v165.17zM555.273 338.466h.002l-.002-.039v-.736c0-.223-.053-.439-.07-.66-.752-13.477-11.922-24.22-25.583-24.22h-49.839c-12.379 0-22.453 10.074-22.453 22.453v118.892c0 12.379 10.074 22.453 22.453 22.453h53.036c12.384 0 22.457-10.074 22.457-22.453v-46.21h-.002v-.002c0-11.938-18.553-11.958-18.553 0v32.52l.002.02v13.673c0 2.115-1.789 3.9-3.904 3.9h-53.036c-2.115 0-3.9-1.785-3.9-3.9V335.264c0-2.115 1.785-3.9 3.9-3.9h49.839a7.106 7.106 0 0 1 7.1 7.083v13.212c0 4.852 4.267 9.501 9.277 9.276 5.027-.225 9.277-4.076 9.277-9.276l-.001-13.193z"/><path d="M545.996 369.799a8.676 8.676 0 0 0-8.676 8.677 8.676 8.676 0 1 0 17.353 0 8.677 8.677 0 0 0-8.677-8.677zM301.959 218.012c-5.2-10.745-21.204-1.348-16.02 9.364 20.423 42.204 8.141 94.068-33.162 118.573-35.687 21.173-83.11 15.135-111.467-15.621-27.536-29.865-31.873-75.533-9.76-109.793 26.826-41.562 80.556-51.161 122.453-27.405 10.401 5.898 19.761-10.125 9.364-16.02-48.851-27.699-110.879-17.45-144.391 29.043-29.953 41.557-25.807 100.066 9.214 137.295 34.97 37.174 93.557 44.387 136.568 16.952 48.494-30.932 61.618-91.929 37.201-142.388z"/><path d="M278.527 210.203a8.677 8.677 0 1 0 0-17.354 8.677 8.677 0 0 0 0 17.354zM206.734 238.621c7.03 0 12.971 5.004 12.971 10.926 0 5.021 4.083 9.104 9.103 9.104 5.017 0 9.1-4.083 9.1-9.104 0-12.066-8.128-23.026-20.235-27.275l-1.748-.614-.123-1.85c-.316-4.765-4.302-8.496-9.069-8.496-4.767 0-8.753 3.731-9.07 8.496l-.122 1.85-1.748.614c-12.102 4.25-20.23 15.212-20.23 27.275 0 16.065 13.981 29.135 31.171 29.135 7.03 0 12.971 5.004 12.971 10.926 0 5.922-5.942 10.926-12.971 10.926-7.027 0-12.964-5.004-12.964-10.926 0-5.02-4.083-9.106-9.104-9.106s-9.104 4.085-9.104 9.106c0 12.093 8.158 23.066 20.302 27.303l1.63.57.232 1.71c.6 4.495 4.476 7.884 9.007 7.884s8.407-3.391 9.01-7.886l.232-1.71 1.63-.568c12.144-4.237 20.302-15.21 20.302-27.303 0-16.065-13.98-29.135-31.171-29.135-7.027 0-12.968-5.004-12.968-10.926s5.94-10.926 12.966-10.926zM427.154 209.365l90.821.322c11.94.043 11.956-18.511 0-18.553l-90.821-.322c-11.939-.042-11.955 18.511 0 18.553zM406.827 205.711c3.308-3.468 3.176-8.96-.291-12.268-3.469-3.307-8.962-3.177-12.268.292a8.678 8.678 0 0 0 12.559 11.976zM544.789 241.633l-117.634-.322c-11.94-.033-11.956 18.52 0 18.553l117.634.322c11.94.033 11.957-18.52 0-18.553zM406.827 256.209a8.678 8.678 0 1 0-12.56-11.977 8.678 8.678 0 0 0 12.56 11.977z"/><path fill="#F16235" d="M352.8 68.098h93.848v35.575H352.8z"/><path fill="#58C7DE" d="M617.479 552.311v28.649c0 .693-.612 1.305-1.305 1.305H183.272c-.693 0-1.305-.612-1.305-1.305v-28.649c0-.698.611-1.309 1.305-1.309h432.902c.694 0 1.305.611 1.305 1.309zM391.482 457.856c0 .086-.113.199-.199.199l-60.641-.199.199-84.182 60.642.199v83.983z"/><path fill="#F16235" d="M682.247 457.77c0 .136-.15.285-.285.285l-60.551-.285.285-165.455 60.551.285v165.17z"/></svg>    