<svg xmlns="http://www.w3.org/2000/svg" viewBox="0 0 511.999 511.999" style="enable-background:new 0 0 511.999 511.999" xml:space="preserve"><path style="fill:#b88c1d" d="M326.679 52.642c0-11.877-9.717-21.594-21.594-21.594h-98.179c-11.877 0-21.594 9.717-21.594 21.594v87.77c0 11.877 9.717 21.594 21.594 21.594h98.179c11.877 0 21.594-9.717 21.594-21.594v-87.77z"/><path style="fill:#333e48" d="M442.772 142.065c0-11.877-9.717-21.594-21.594-21.594H90.813c-11.877 0-21.594 9.717-21.594 21.594v170.598c0 11.877 9.717 21.594 21.594 21.594h330.365c11.877 0 21.594-9.717 21.594-21.594V142.065z"/><path style="fill:#fff" d="M418.12 279.493c0 9.36-7.587 16.948-16.947 16.948-9.361 0-16.948-7.587-16.948-16.948v-57.791c0-9.36 7.587-16.948 16.948-16.948 9.36 0 16.947 7.588 16.947 16.948v57.791z"/><circle style="fill:#fff" cx="401.167" cy="167.178" r="16.948"/><circle style="fill:#f9be00" cx="255.993" cy="227.36" r="72.825"/><circle style="fill:#333e48" cx="255.993" cy="227.36" r="46.283"/><circle style="opacity:.2;enable-background:new" cx="255.993" cy="227.36" r="21.437"/><path style="fill:#f9be00" d="M165.298 174.07c0 2.969-2.429 5.398-5.398 5.398H98.897c-2.969 0-5.398-2.429-5.398-5.398v-24.129c0-2.969 2.429-5.398 5.398-5.398H159.9c2.969 0 5.398 2.429 5.398 5.398v24.129zM214.91 91.393c0 2.969 2.429 5.398 5.398 5.398h71.382c2.969 0 5.398-2.429 5.398-5.398v-29.78c0-2.969-2.429-5.398-5.398-5.398h-71.382c-2.969 0-5.398 2.429-5.398 5.398v29.78zM479.57 350.11c-1.82-8.72-10.597-15.854-19.505-15.854H51.933c-8.907 0-17.685 7.133-19.505 15.854L8.425 465.097c-1.821 8.72 3.978 15.854 12.886 15.854H490.69c8.907 0 14.706-7.133 12.886-15.854L479.57 350.11z"/><path style="fill:#b88c1d" d="M337.307 388.584c0-8.907-7.288-16.195-16.195-16.195H190.889c-8.907 0-16.195 7.288-16.195 16.195v38.039c0 8.907 7.288 16.195 16.195 16.195h130.222c8.907 0 16.195-7.288 16.195-16.195v-38.039h.001z"/><path style="opacity:.2;enable-background:new" d="M297.09 415.701H214.9a8.099 8.099 0 0 1 0-16.196h82.189a8.099 8.099 0 0 1 .001 16.196z"/><path style="fill:#fff" d="M453.118 453.861c-6.758 0-12.818-4.725-14.254-11.6l-13.226-63.358c-1.644-7.881 3.41-15.601 11.29-17.247 7.878-1.641 15.601 3.41 17.247 11.289l13.226 63.358c1.644 7.881-3.41 15.601-11.289 17.248a14.71 14.71 0 0 1-2.994.31z"/><path style="fill:#1e252b" d="M255.996 281.744c29.985 0 54.379-24.394 54.379-54.381 0-29.985-24.394-54.381-54.379-54.381s-54.381 24.394-54.381 54.381 24.396 54.381 54.381 54.381zm0-92.564c21.055 0 38.184 17.129 38.184 38.185 0 21.055-17.129 38.185-38.184 38.185s-38.185-17.129-38.185-38.185 17.13-38.185 38.185-38.185zm35.696-141.063H220.31c-7.442 0-13.496 6.054-13.496 13.496v29.78c0 7.442 6.054 13.496 13.496 13.496h71.382c7.442 0 13.496-6.054 13.496-13.496v-29.78c0-7.443-6.055-13.496-13.496-13.496zm-2.7 40.576h-65.984V64.312h65.984v24.381zM511.5 463.441l-24.004-114.985c-2.61-12.503-14.659-22.297-27.432-22.297h-12.453a29.502 29.502 0 0 0 3.258-13.496V142.065c0-16.372-13.319-29.691-29.691-29.691h-86.402V52.642c0-16.372-13.319-29.691-29.691-29.691h-98.179c-16.372 0-29.691 13.319-29.691 29.691v59.731H90.813c-16.372 0-29.691 13.319-29.691 29.691v170.598c0 4.859 1.18 9.444 3.258 13.496H51.933c-12.773 0-24.822 9.794-27.432 22.297L.498 463.441c-1.368 6.554.112 13.099 4.063 17.96 3.949 4.86 10.055 7.647 16.75 7.647H490.69c6.695 0 12.8-2.788 16.75-7.647 3.948-4.861 5.428-11.406 4.06-17.96zM193.41 52.642c0-7.442 6.054-13.496 13.496-13.496h98.179c7.442 0 13.496 6.054 13.496 13.496v59.731H193.41V52.642zM77.317 142.065c0-7.442 6.054-13.496 13.496-13.496h330.365c7.442 0 13.496 6.054 13.496 13.496v170.598c0 7.442-6.054 13.496-13.496 13.496H90.813c-7.442 0-13.496-6.054-13.496-13.496V142.065zm417.554 329.121c-.873 1.075-2.359 1.667-4.183 1.667H21.31c-1.824 0-3.308-.592-4.183-1.667-.873-1.074-1.149-2.65-.776-4.434l24.004-114.987c1.028-4.926 6.547-9.411 11.579-9.411h408.132c5.031 0 10.55 4.485 11.579 9.411l24.004 114.987c.371 1.785.096 3.359-.778 4.434zM255.996 308.282c44.618 0 80.917-36.299 80.917-80.917 0-44.619-36.299-80.918-80.917-80.918-44.619 0-80.918 36.3-80.918 80.918s36.299 80.917 80.918 80.917zm0-145.641c35.688 0 64.722 29.035 64.722 64.723s-29.035 64.722-64.722 64.722c-35.689 0-64.723-29.035-64.723-64.722 0-35.688 29.034-64.723 64.723-64.723zm65.116 201.65H190.889c-13.396 0-24.293 10.897-24.293 24.293v38.039c0 13.396 10.897 24.293 24.293 24.293h130.222c13.396 0 24.293-10.897 24.293-24.293v-38.039c.001-13.396-10.897-24.293-24.292-24.293zm8.098 62.332c0 4.465-3.633 8.098-8.098 8.098H190.889c-4.465 0-8.098-3.633-8.098-8.098v-38.039c0-4.465 3.633-8.098 8.098-8.098h130.222c4.465 0 8.098 3.633 8.098 8.098v38.039h.001zM98.897 187.566H159.9c7.442 0 13.496-6.054 13.496-13.496v-24.129c0-7.442-6.054-13.496-13.496-13.496H98.897c-7.442 0-13.496 6.054-13.496 13.496v24.129c0 7.442 6.055 13.496 13.496 13.496zm2.7-34.926H157.2v18.73h-55.604v-18.73z"/></svg>