<svg xmlns="http://www.w3.org/2000/svg" width="128" height="128"><path fill="#e70b69" d="M42.629 82.575h6.75V95h-6.75z"/><path d="M59.937 38.13v22.84a13.3 13.3 0 0 1-.09 1.55 13.932 13.932 0 0 1-27.69 0 13.3 13.3 0 0 1-.09-1.55V38.13a14.424 14.424 0 0 1 .11-1.75 13.936 13.936 0 0 1 27.65 0 14.424 14.424 0 0 1 .11 1.75z" fill="#a6d12b"/><path d="M65.442 103.8H26.567a12.993 12.993 0 0 1 12.3-8.8h14.277a12.993 12.993 0 0 1 12.3 8.8z" fill="#455e9f"/><path d="M39.627 38.13a1.746 1.746 0 0 1-1.75 1.75h-5.81v-1.75a14.424 14.424 0 0 1 .11-1.75h5.7a1.752 1.752 0 0 1 1.75 1.75zM39.627 49.45a1.746 1.746 0 0 1-1.75 1.75h-5.81v-3.5h5.81a1.746 1.746 0 0 1 1.75 1.75zM39.627 60.77a1.752 1.752 0 0 1-1.75 1.75h-5.72a13.3 13.3 0 0 1-.09-1.55v-1.95h5.81a1.746 1.746 0 0 1 1.75 1.75zM59.937 38.13v1.75h-5.81a1.75 1.75 0 0 1 0-3.5h5.7a14.424 14.424 0 0 1 .11 1.75zM59.937 47.7v3.5h-5.81a1.75 1.75 0 1 1 0-3.5zM59.937 59.02v1.95a13.3 13.3 0 0 1-.09 1.55h-5.72a1.75 1.75 0 0 1 0-3.5z" fill="#66ba00"/><path fill="#fd4b4a" d="M67.813 24.199h35.985V53.5H67.813z"/><g fill="#e9f1f8"><path d="M83.36 34.007a4.233 4.233 0 0 0-.243-.239 2.962 2.962 0 0 0 1.095-.75 3.012 3.012 0 0 0 .753-2.089 3.226 3.226 0 0 0-.489-1.755 2.671 2.671 0 0 0-1.347-1.106 7.246 7.246 0 0 0-2.372-.285h-4.511v10.438h2.905v-3.939a2.382 2.382 0 0 1 .68.076.992.992 0 0 1 .375.263 12.789 12.789 0 0 1 .953 1.324l1.527 2.276h3.449l-1.631-2.6a11.058 11.058 0 0 0-1.144-1.614zM82 31.051a.76.76 0 0 1-.106.427.535.535 0 0 1-.282.207 6.626 6.626 0 0 1-1.552.089h-.911v-1.395h.988c1.014 0 1.262.019 1.307.025a.691.691 0 0 1 .425.207.646.646 0 0 1 .131.44zM90.433 35.631v-1.569h4.738v-2.59h-4.738v-1.093h5.092v-2.596h-7.998v10.438h8.179v-2.59h-5.273zM82.291 46.324a2.355 2.355 0 0 1-.629 1.257 1.413 1.413 0 0 1-.976.357 1.6 1.6 0 0 1-1.292-.583 3.584 3.584 0 0 1-.526-2.225 3.261 3.261 0 0 1 .531-2.112 1.653 1.653 0 0 1 1.326-.581 1.452 1.452 0 0 1 1.5 1.2l.112.492 2.886-.689-.144-.5a4.23 4.23 0 0 0-1.1-1.965 4.429 4.429 0 0 0-3.158-1.16 4.67 4.67 0 0 0-3.565 1.463 5.656 5.656 0 0 0-1.352 4 5.417 5.417 0 0 0 1.347 3.855 4.946 4.946 0 0 0 6.264.59 4.638 4.638 0 0 0 1.593-2.561l.127-.464-2.822-.9z"/></g><circle cx="91.617" cy="45.165" r="2.571" fill="#e9f1f8"/><g fill="#001c5b"><path d="M60.252 74.889a1.75 1.75 0 0 0 2.485 2.465q.63-.636 1.21-1.317a1.75 1.75 0 1 0-2.662-2.271q-.495.579-1.033 1.123zM67.815 59.018a1.75 1.75 0 0 0-1.75 1.75 19.879 19.879 0 0 1-1.907 8.549 1.75 1.75 0 0 0 3.166 1.493 23.357 23.357 0 0 0 2.241-10.042 1.749 1.749 0 0 0-1.75-1.75zM39.994 27.312a1.733 1.733 0 0 0 .759-.175c.177-.085.355-.165.537-.241a1.75 1.75 0 1 0-1.355-3.227c-.238.1-.473.2-.7.317a1.75 1.75 0 0 0 .763 3.326z"/><path d="M46.007 76.651A15.7 15.7 0 0 0 61.69 60.969V38.132a15.658 15.658 0 0 0-14.92-15.664 1.77 1.77 0 0 0-1.832 1.664 1.75 1.75 0 0 0 1.662 1.832 12.15 12.15 0 0 1 11.451 10.418h-3.919a1.75 1.75 0 0 0 0 3.5h4.058V47.7h-4.058a1.75 1.75 0 1 0 0 3.5h4.058v7.819h-4.058a1.75 1.75 0 0 0 0 3.5h3.948a12.171 12.171 0 0 1-24.146 0h3.948a1.75 1.75 0 1 0 0-3.5h-4.057V51.2h4.057a1.75 1.75 0 0 0 0-3.5h-4.057v-7.818h4.057a1.75 1.75 0 0 0 0-3.5h-3.92a12.177 12.177 0 0 1 2.675-6.035 1.75 1.75 0 0 0-2.691-2.239 15.7 15.7 0 0 0-3.621 10.024v22.837a15.7 15.7 0 0 0 15.682 15.682z"/><path d="M53.147 93.25h-2.015v-9.5a23.457 23.457 0 0 0 5.791-2.1 1.749 1.749 0 1 0-1.624-3.1 20.067 20.067 0 0 1-29.35-17.781 1.75 1.75 0 0 0-3.5 0 23.585 23.585 0 0 0 23.558 23.556c.543 0 1.085-.024 1.625-.061v8.986h-3.25v-4.462a1.75 1.75 0 0 0-3.5 0v4.462h-2.014a14.739 14.739 0 0 0-13.954 9.986 1.749 1.749 0 0 0 1.656 2.315h38.875a1.751 1.751 0 0 0 1.657-2.315 14.742 14.742 0 0 0-13.955-9.986zm-23.825 8.8a11.243 11.243 0 0 1 9.546-5.3h14.279a11.242 11.242 0 0 1 9.545 5.3zM103.8 48.083a1.749 1.749 0 0 0 1.75-1.75V24.2a1.749 1.749 0 0 0-1.75-1.75H67.815a1.75 1.75 0 0 0-1.75 1.75v29.3a1.75 1.75 0 0 0 1.75 1.75H103.8a1.75 1.75 0 0 0 0-3.5H69.565v-25.8h32.486v20.383a1.749 1.749 0 0 0 1.749 1.75z"/><path d="M84.507 35.616a11.058 11.058 0 0 0-1.144-1.609 4.233 4.233 0 0 0-.243-.239 2.962 2.962 0 0 0 1.095-.75 3.012 3.012 0 0 0 .753-2.089 3.226 3.226 0 0 0-.489-1.755 2.671 2.671 0 0 0-1.347-1.106 7.246 7.246 0 0 0-2.372-.285h-4.511v10.438h2.905v-3.939a2.382 2.382 0 0 1 .68.076.992.992 0 0 1 .375.263 12.789 12.789 0 0 1 .953 1.324l1.526 2.276h3.45zM81.9 31.478a.529.529 0 0 1-.281.207 6.632 6.632 0 0 1-1.553.089h-.91v-1.395h.988c1.014 0 1.262.019 1.307.025a.691.691 0 0 1 .425.207.646.646 0 0 1 .131.44.752.752 0 0 1-.107.427zM95.709 35.631h-5.273v-1.569h4.738v-2.59h-4.738v-1.093h5.092v-2.596H87.53v10.438h8.179v-2.59zM80.728 42.437a1.45 1.45 0 0 1 1.5 1.2l.113.492 2.886-.689-.144-.5a4.223 4.223 0 0 0-1.1-1.965 4.426 4.426 0 0 0-3.157-1.16 4.67 4.67 0 0 0-3.565 1.463 5.656 5.656 0 0 0-1.352 4 5.417 5.417 0 0 0 1.347 3.855 4.946 4.946 0 0 0 6.264.59 4.638 4.638 0 0 0 1.593-2.561l.127-.464-2.822-.9-.122.528a2.355 2.355 0 0 1-.629 1.257 1.414 1.414 0 0 1-.977.357 1.6 1.6 0 0 1-1.292-.583 3.592 3.592 0 0 1-.525-2.225 3.261 3.261 0 0 1 .531-2.112 1.653 1.653 0 0 1 1.324-.583z"/><circle cx="91.62" cy="45.164" r="2.571"/></g></svg>